<svg width="221" height="30" viewBox="0 0 221 30" fill="none" xmlns="http://www.w3.org/2000/svg">
<path d="M7.09 29.4C4.98333 29.4 3.37 28.8 2.25 27.6C1.15667 26.4 0.61 24.7067 0.61 22.52V7.48C0.61 5.29333 1.15667 3.6 2.25 2.4C3.37 1.2 4.98333 0.599998 7.09 0.599998C9.19667 0.599998 10.7967 1.2 11.89 2.4C13.01 3.6 13.57 5.29333 13.57 7.48V10.44H9.41V7.2C9.41 5.46667 8.67667 4.6 7.21 4.6C5.74333 4.6 5.01 5.46667 5.01 7.2V22.84C5.01 24.5467 5.74333 25.4 7.21 25.4C8.67667 25.4 9.41 24.5467 9.41 22.84V18.56H13.57V22.52C13.57 24.7067 13.01 26.4 11.89 27.6C10.7967 28.8 9.19667 29.4 7.09 29.4ZM22.6025 29.4C20.4692 29.4 18.8425 28.8 17.7225 27.6C16.6025 26.3733 16.0425 24.6267 16.0425 22.36V0.999998H20.4425V22.68C20.4425 23.64 20.6292 24.3333 21.0025 24.76C21.4025 25.1867 21.9625 25.4 22.6825 25.4C23.4025 25.4 23.9492 25.1867 24.3225 24.76C24.7225 24.3333 24.9225 23.64 24.9225 22.68V0.999998H29.1625V22.36C29.1625 24.6267 28.6025 26.3733 27.4825 27.6C26.3625 28.8 24.7358 29.4 22.6025 29.4ZM32.2963 0.999998H36.6963V25H43.9363V29H32.2963V0.999998ZM46.3613 5H41.7613V0.999998H55.3613V5H50.7613V29H46.3613V5ZM63.8916 29.4C61.7582 29.4 60.1316 28.8 59.0116 27.6C57.8916 26.3733 57.3316 24.6267 57.3316 22.36V0.999998H61.7316V22.68C61.7316 23.64 61.9182 24.3333 62.2916 24.76C62.6916 25.1867 63.2516 25.4 63.9716 25.4C64.6916 25.4 65.2382 25.1867 65.6116 24.76C66.0116 24.3333 66.2116 23.64 66.2116 22.68V0.999998H70.4516V22.36C70.4516 24.6267 69.8916 26.3733 68.7716 27.6C67.6516 28.8 66.0249 29.4 63.8916 29.4ZM73.5853 0.999998H80.1053C82.372 0.999998 84.0253 1.53333 85.0653 2.6C86.1053 3.64 86.6253 5.25333 86.6253 7.44V9.16C86.6253 12.0667 85.6653 13.9067 83.7453 14.68V14.76C84.812 15.08 85.5586 15.7333 85.9853 16.72C86.4386 17.7067 86.6653 19.0267 86.6653 20.68V25.6C86.6653 26.4 86.692 27.0533 86.7453 27.56C86.7986 28.04 86.932 28.52 87.1453 29H82.6653C82.5053 28.5467 82.3986 28.12 82.3453 27.72C82.292 27.32 82.2653 26.6 82.2653 25.56V20.44C82.2653 19.16 82.052 18.2667 81.6253 17.76C81.2253 17.2533 80.5186 17 79.5053 17H77.9853V29H73.5853V0.999998ZM79.5853 13C80.4653 13 81.1186 12.7733 81.5453 12.32C81.9986 11.8667 82.2253 11.1067 82.2253 10.04V7.88C82.2253 6.86667 82.0386 6.13333 81.6653 5.68C81.3186 5.22667 80.7586 5 79.9853 5H77.9853V13H79.5853ZM93.1181 0.999998H99.0781L103.638 29H99.2381L98.4381 23.44V23.52H93.4381L92.6381 29H88.5581L93.1181 0.999998ZM97.9181 19.72L95.9581 5.88H95.8781L93.9581 19.72H97.9181ZM105.773 0.999998H110.173V25H117.413V29H105.773V0.999998Z" fill="#363636"/>
<path d="M125.929 0.999998H137.569V5H130.329V12.8H136.009V16.8H130.329V29H125.929V0.999998ZM139.679 0.999998H144.079V29H139.679V0.999998ZM150.814 5H146.214V0.999998H159.814V5H155.214V29H150.814V5ZM161.945 0.999998H167.465L171.745 17.76H171.825V0.999998H175.745V29H171.225L165.945 8.56H165.865V29H161.945V0.999998ZM179.015 0.999998H191.015V5H183.415V12.4H189.455V16.4H183.415V25H191.015V29H179.015V0.999998ZM199.344 29.4C197.211 29.4 195.598 28.8 194.504 27.6C193.411 26.3733 192.864 24.6267 192.864 22.36V20.76H197.024V22.68C197.024 24.4933 197.784 25.4 199.304 25.4C200.051 25.4 200.611 25.1867 200.984 24.76C201.384 24.3067 201.584 23.5867 201.584 22.6C201.584 21.4267 201.318 20.4 200.784 19.52C200.251 18.6133 199.264 17.5333 197.824 16.28C196.011 14.68 194.744 13.24 194.024 11.96C193.304 10.6533 192.944 9.18667 192.944 7.56C192.944 5.34667 193.504 3.64 194.624 2.44C195.744 1.21333 197.371 0.599998 199.504 0.599998C201.611 0.599998 203.198 1.21333 204.264 2.44C205.358 3.64 205.904 5.37333 205.904 7.64V8.8H201.744V7.36C201.744 6.4 201.558 5.70667 201.184 5.28C200.811 4.82667 200.264 4.6 199.544 4.6C198.078 4.6 197.344 5.49333 197.344 7.28C197.344 8.29333 197.611 9.24 198.144 10.12C198.704 11 199.704 12.0667 201.144 13.32C202.984 14.92 204.251 16.3733 204.944 17.68C205.638 18.9867 205.984 20.52 205.984 22.28C205.984 24.5733 205.411 26.3333 204.264 27.56C203.144 28.7867 201.504 29.4 199.344 29.4ZM214.227 29.4C212.094 29.4 210.481 28.8 209.387 27.6C208.294 26.3733 207.747 24.6267 207.747 22.36V20.76H211.907V22.68C211.907 24.4933 212.667 25.4 214.187 25.4C214.934 25.4 215.494 25.1867 215.867 24.76C216.267 24.3067 216.467 23.5867 216.467 22.6C216.467 21.4267 216.201 20.4 215.667 19.52C215.134 18.6133 214.147 17.5333 212.707 16.28C210.894 14.68 209.627 13.24 208.907 11.96C208.187 10.6533 207.827 9.18667 207.827 7.56C207.827 5.34667 208.387 3.64 209.507 2.44C210.627 1.21333 212.254 0.599998 214.387 0.599998C216.494 0.599998 218.081 1.21333 219.147 2.44C220.241 3.64 220.787 5.37333 220.787 7.64V8.8H216.627V7.36C216.627 6.4 216.441 5.70667 216.067 5.28C215.694 4.82667 215.147 4.6 214.427 4.6C212.961 4.6 212.227 5.49333 212.227 7.28C212.227 8.29333 212.494 9.24 213.027 10.12C213.587 11 214.587 12.0667 216.027 13.32C217.867 14.92 219.134 16.3733 219.827 17.68C220.521 18.9867 220.867 20.52 220.867 22.28C220.867 24.5733 220.294 26.3333 219.147 27.56C218.027 28.7867 216.387 29.4 214.227 29.4Z" fill="white"/>
</svg>
