<svg width="41" height="41" viewBox="0 0 41 41" fill="none" xmlns="http://www.w3.org/2000/svg">
<path fill-rule="evenodd" clip-rule="evenodd" d="M12.7526 1.82106C14.7571 1.72919 15.396 1.70831 20.5 1.70831C25.6051 1.70831 26.2429 1.73023 28.2463 1.82106C30.2476 1.9119 31.6143 2.23031 32.8096 2.69488C34.0634 3.1669 35.1991 3.90649 36.1378 4.86219C37.0936 5.8008 37.8333 6.9366 38.3051 8.1904C38.7696 9.38575 39.087 10.7523 39.179 12.7526C39.2709 14.757 39.2917 15.396 39.2917 20.5C39.2917 25.604 39.2698 26.2429 39.179 28.2474C39.0881 30.2476 38.7696 31.6142 38.3051 32.8095C37.8249 34.0447 37.1817 35.0938 36.1378 36.1377C35.1992 37.0935 34.0634 37.8332 32.8096 38.3051C31.6143 38.7696 30.2476 39.087 28.2475 39.1789C26.2429 39.2708 25.604 39.2916 20.5 39.2916C15.396 39.2916 14.7571 39.2698 12.7526 39.1789C10.7524 39.088 9.38581 38.7696 8.19046 38.3051C6.95542 37.8249 5.90623 37.1817 4.86225 36.1377C3.90638 35.1992 3.16674 34.0633 2.69494 32.8095C2.23037 31.6142 1.913 30.2476 1.82112 28.2474C1.72925 26.2429 1.70837 25.605 1.70837 20.5C1.70837 15.3949 1.73029 14.757 1.82112 12.7536C1.91196 10.7523 2.23037 9.38575 2.69494 8.1904C3.16697 6.93668 3.90655 5.80093 4.86225 4.86219C5.80084 3.90632 6.93664 3.16668 8.19046 2.69488C9.38581 2.23031 10.7524 1.91294 12.7526 1.82106V1.82106ZM28.0939 5.20356C26.1124 5.11377 25.5174 5.09394 20.5 5.09394C15.4827 5.09394 14.8876 5.11377 12.9061 5.20356C11.0739 5.28708 10.079 5.59296 9.41713 5.85083C8.54019 6.19117 7.91379 6.59831 7.25608 7.25602C6.59943 7.91373 6.19123 8.54013 5.85089 9.41706C5.59302 10.079 5.28714 11.0739 5.20362 12.9061C5.11383 14.8875 5.094 15.4826 5.094 20.5C5.094 25.5174 5.11383 26.1124 5.20362 28.0939C5.28714 29.926 5.59302 30.921 5.85089 31.583C6.15194 32.3992 6.63211 33.1375 7.25608 33.744C7.86237 34.3679 8.60083 34.8481 9.41713 35.1491C10.079 35.4071 11.0739 35.7129 12.9061 35.7964C14.8876 35.8863 15.4816 35.9061 20.5 35.9061C25.5184 35.9061 26.1124 35.8863 28.0939 35.7964C29.9261 35.7129 30.921 35.4071 31.583 35.1491C32.4599 34.8088 33.0864 34.4017 33.7441 33.744C34.3679 33.1377 34.8482 32.3992 35.1492 31.583C35.4071 30.921 35.7129 29.926 35.7965 28.0939C35.8863 26.1124 35.9061 25.5174 35.9061 20.5C35.9061 15.4826 35.8863 14.8875 35.7965 12.9061C35.7129 11.0739 35.4071 10.079 35.1492 9.41706C34.8089 8.54013 34.4018 7.91373 33.7441 7.25602C33.0864 6.59937 32.4599 6.19117 31.583 5.85083C30.921 5.59296 29.9261 5.28708 28.0939 5.20356V5.20356ZM18.1007 26.2928C18.8614 26.608 19.6766 26.7701 20.5 26.7701C22.1631 26.7701 23.7578 26.1095 24.9337 24.9336C26.1097 23.7578 26.7703 22.1629 26.7703 20.5C26.7703 18.8371 26.1097 17.2422 24.9337 16.0663C23.7578 14.8904 22.1631 14.2298 20.5 14.2298C19.6766 14.2298 18.8614 14.392 18.1007 14.7071C17.3398 15.0222 16.6487 15.4841 16.0664 16.0663C15.4842 16.6485 15.0223 17.3397 14.7072 18.1005C14.3921 18.8612 14.2299 19.6766 14.2299 20.5C14.2299 21.3234 14.3921 22.1388 14.7072 22.8995C15.0223 23.6602 15.4842 24.3514 16.0664 24.9336C16.6487 25.5158 17.3398 25.9777 18.1007 26.2928V26.2928ZM13.6702 13.6701C15.4816 11.8587 17.9384 10.841 20.5 10.841C23.0619 10.841 25.5186 11.8587 27.33 13.6701C29.1413 15.4815 30.159 17.9383 30.159 20.5C30.159 23.0616 29.1413 25.5184 27.33 27.3299C25.5186 29.1412 23.0619 30.1589 20.5 30.1589C17.9384 30.1589 15.4816 29.1412 13.6702 27.3299C11.8588 25.5184 10.8412 23.0616 10.8412 20.5C10.8412 17.9383 11.8588 15.4815 13.6702 13.6701V13.6701ZM32.3007 12.2801C32.7288 11.8519 32.9693 11.2712 32.9693 10.6657C32.9693 10.0601 32.7288 9.47938 32.3007 9.05121C31.8724 8.62303 31.2918 8.38248 30.6861 8.38248C30.0807 8.38248 29.4999 8.62303 29.0718 9.05121C28.6435 9.47938 28.403 10.0601 28.403 10.6657C28.403 11.2712 28.6435 11.8519 29.0718 12.2801C29.4999 12.7083 30.0807 12.9489 30.6861 12.9489C31.2918 12.9489 31.8724 12.7083 32.3007 12.2801Z" fill="#363636"/>
</svg>
