<svg xmlns="http://www.w3.org/2000/svg" width="22" height="22" viewBox="0 0 22 22"><path d="M7.465,1.066C8.638,1.012,9.012,1,12,1s3.362.013,4.534.066a8.07,8.07,0,0,1,2.671.512,5.4,5.4,0,0,1,1.948,1.269,5.393,5.393,0,0,1,1.269,1.948,8.086,8.086,0,0,1,.511,2.671C22.988,8.638,23,9.012,23,12s-.013,3.362-.066,4.535a8.071,8.071,0,0,1-.511,2.67,5.625,5.625,0,0,1-3.217,3.217,8.086,8.086,0,0,1-2.67.511C15.362,22.988,14.988,23,12,23s-3.362-.013-4.535-.066a8.071,8.071,0,0,1-2.671-.511,5.4,5.4,0,0,1-1.948-1.269,5.392,5.392,0,0,1-1.269-1.948,8.085,8.085,0,0,1-.512-2.67C1.012,15.362,1,14.988,1,12s.013-3.362.066-4.534a8.07,8.07,0,0,1,.512-2.671A5.4,5.4,0,0,1,2.846,2.846,5.392,5.392,0,0,1,4.794,1.577,8.085,8.085,0,0,1,7.465,1.066Zm8.98,1.98c-1.16-.053-1.508-.064-4.445-.064s-3.285.012-4.445.064a6.074,6.074,0,0,0-2.042.379,3.4,3.4,0,0,0-1.265.823,3.412,3.412,0,0,0-.823,1.265,6.074,6.074,0,0,0-.379,2.042C2.993,8.715,2.982,9.063,2.982,12s.012,3.285.064,4.445a6.075,6.075,0,0,0,.379,2.042,3.409,3.409,0,0,0,.823,1.265,3.408,3.408,0,0,0,1.265.823,6.073,6.073,0,0,0,2.042.379c1.16.053,1.508.064,4.445.064s3.285-.012,4.445-.064a6.073,6.073,0,0,0,2.042-.379,3.638,3.638,0,0,0,2.087-2.087,6.073,6.073,0,0,0,.379-2.042c.053-1.16.064-1.508.064-4.445s-.012-3.285-.064-4.445a6.073,6.073,0,0,0-.379-2.042,3.638,3.638,0,0,0-2.087-2.088A6.075,6.075,0,0,0,16.445,3.046ZM10.6,15.391A3.67,3.67,0,1,0,9.4,14.6,3.669,3.669,0,0,0,10.6,15.391ZM8,8a5.654,5.654,0,1,1-1.656,4A5.654,5.654,0,0,1,8,8Zm10.906-.814a1.337,1.337,0,1,0-.945.391A1.337,1.337,0,0,0,18.908,7.188Z" transform="translate(-1 -1)" fill="#b4b4b4" fill-rule="evenodd"/></svg>