<svg width="41" height="41" viewBox="0 0 41 41" fill="none" xmlns="http://www.w3.org/2000/svg">
<g clip-path="url(#clip0_43:8)">
<path d="M34.9551 5.95781C31.119 2.11406 26.0171 0 20.582 0C9.38648 0 0.274228 9.11225 0.274228 20.3155C0.274228 23.8953 1.2121 27.3957 2.98792 30.4707L0.105103 41L10.8753 38.1736C13.8452 39.7905 17.1867 40.6489 20.5795 40.6489H20.5872C31.7827 40.6489 40.9027 31.5367 40.9027 20.3334C40.9027 14.9035 38.7886 9.80412 34.9525 5.96037L34.9551 5.95781ZM20.5872 37.2203C17.5532 37.2203 14.5807 36.4029 11.9874 34.8654L11.3699 34.4964L4.97898 36.1697L6.6856 29.9403L6.28585 29.2996C4.58692 26.6167 3.70029 23.5109 3.70029 20.3155C3.70029 11.0034 11.275 3.42606 20.5974 3.42606C25.1049 3.42606 29.3509 5.18906 32.5361 8.37425C35.7239 11.5697 37.4766 15.8055 37.4766 20.3206C37.4689 29.6404 29.8942 37.2178 20.5872 37.2178V37.2203ZM29.8455 24.5693C29.3407 24.313 26.8422 23.0881 26.3784 22.919C25.9146 22.7499 25.5764 22.6627 25.233 23.1752C24.8973 23.6801 23.921 24.8255 23.6237 25.1689C23.3265 25.5046 23.0318 25.5532 22.527 25.297C22.0222 25.0407 20.3796 24.5052 18.4424 22.7755C16.9356 21.4302 15.9132 19.7646 15.6159 19.2597C15.3187 18.7549 15.5826 18.4756 15.8414 18.2271C16.0746 18.0016 16.3462 17.6351 16.6025 17.3379C16.8587 17.0406 16.9382 16.8331 17.1073 16.4897C17.2764 16.154 17.1944 15.8567 17.0663 15.6005C16.9382 15.3442 15.9209 12.8458 15.5057 11.8285C15.0983 10.8343 14.6729 10.9726 14.3603 10.9547C14.063 10.9393 13.7274 10.9393 13.3917 10.9393C13.056 10.9393 12.5025 11.0674 12.0387 11.5722C11.5749 12.0771 10.2603 13.3096 10.2603 15.8081C10.2603 18.3065 12.0771 20.7178 12.3334 21.0612C12.5896 21.3969 15.9132 26.5296 21.0049 28.7256C22.2144 29.2458 23.1599 29.5584 23.8954 29.7993C25.1125 30.1837 26.217 30.1273 27.0908 29.9992C28.0671 29.8557 30.094 28.7743 30.5194 27.5879C30.9448 26.4014 30.9448 25.3867 30.8167 25.1766C30.6962 24.9511 30.3605 24.8255 29.848 24.5667L29.8455 24.5693Z" fill="white"/>
</g>
<defs>
<clipPath id="clip0_43:8">
<rect width="41" height="41" fill="white"/>
</clipPath>
</defs>
</svg>
