<svg xmlns="http://www.w3.org/2000/svg" width="21.376" height="21.482" viewBox="0 0 21.376 21.482"><path d="M18.3,3.122A10.645,10.645,0,0,0,1.551,15.965L.041,21.482,5.684,20a10.646,10.646,0,0,0,5.085,1.3h0A10.647,10.647,0,0,0,18.3,3.123ZM10.773,19.5h0a8.839,8.839,0,0,1-4.506-1.234l-.324-.193-3.349.877.894-3.264-.209-.336A8.85,8.85,0,0,1,17.033,4.388,8.856,8.856,0,0,1,10.773,19.5Zm4.851-6.629c-.264-.134-1.574-.776-1.817-.865s-.42-.134-.6.134-.687.865-.843,1.045-.31.2-.575.067a7.309,7.309,0,0,1-2.14-1.321,8.117,8.117,0,0,1-1.481-1.842c-.156-.264-.017-.411.118-.541s.264-.31.4-.466a1.738,1.738,0,0,0,.264-.444.489.489,0,0,0-.021-.466c-.067-.134-.6-1.443-.818-1.976s-.436-.448-.6-.458S7.178,5.732,7,5.732a.982.982,0,0,0-.709.332,2.984,2.984,0,0,0-.932,2.219,5.177,5.177,0,0,0,1.086,2.752,11.871,11.871,0,0,0,4.543,4.016c.634.273,1.129.436,1.514.563a3.674,3.674,0,0,0,1.674.1,2.736,2.736,0,0,0,1.8-1.263,2.2,2.2,0,0,0,.156-1.263c-.063-.118-.239-.184-.508-.32Z" transform="translate(-0.041)" fill="#b4b4b4"/></svg>